<?xml version="1.0" encoding="UTF-8"?>
<svg width="43px" height="43px" viewBox="0 0 43 43" version="1.1" xmlns="http://www.w3.org/2000/svg" xmlns:xlink="http://www.w3.org/1999/xlink">
    <!-- Generator: Sketch 50.2 (55047) - http://www.bohemiancoding.com/sketch -->
    <title>Group 10@2x</title>
    <desc>Created with Sketch.</desc>
    <defs></defs>
    <g id="出借" stroke="none" stroke-width="1" fill="none" fill-rule="evenodd" stroke-linecap="round" stroke-linejoin="round">
        <g id="W计划详情页-Copy" transform="translate(-273.000000, -1180.000000)" stroke-width="3">
            <g id="Group-7" transform="translate(32.000000, 1090.000000)">
                <g id="Group-6" transform="translate(0.000000, 72.000000)">
                    <g id="Group-4" transform="translate(222.000000, 0.000000)">
                        <g id="Group-10" transform="translate(20.000000, 19.086542)">
                            <path d="M14.9697059,39.3430594 C6.69751134,37.0483219 0.628710365,29.4623207 0.628710365,20.4593747 C0.628710365,9.63623406 9.39995466,0.86498977 20.2230953,0.86498977" id="Stroke-1" stroke="#566FFF"></path>
                            <path d="M25.6500382,1.6233671 C33.8331167,3.97825794 39.8194854,11.5174732 39.8194854,20.4602659 C39.8194854,31.2834065 31.0460132,40.0568787 20.2228725,40.0568787" id="Stroke-3" stroke="#566FFF"></path>
                            <path d="M14.9826277,20.4602659 L25.4626717,20.4602659" id="Stroke-5" stroke="#FF9B21"></path>
                            <path d="M14.9826277,25.0488498 L25.4626717,25.0488498" id="Stroke-7" stroke="#FF9B21"></path>
                            <path d="M20.2239865,20.4602659 L20.2239865,29.6369881" id="Stroke-9" stroke="#FF9B21"></path>
                            <path d="M24.7557589,11.4746976 C24.7267962,11.5883205 20.2242093,18.7265137 20.2242093,18.7265137" id="Stroke-11" stroke="#FF9B21"></path>
                            <path d="M15.6897634,11.4746976 C15.720954,11.5883205 20.2235409,18.7265137 20.2235409,18.7265137" id="Stroke-13" stroke="#FF9B21"></path>
                            <path d="M20.2239865,0.86387582 L7.05263868,0.86387582" id="Stroke-15" stroke="#566FFF"></path>
                            <g id="Group-19" transform="translate(19.006884, 39.499012)" stroke="#566FFF">
                                <path d="M14.3886726,0.557643497 L1.21732484,0.557643497" id="Stroke-17"></path>
                            </g>
                        </g>
                    </g>
                </g>
            </g>
        </g>
    </g>
</svg>