<?xml version="1.0" encoding="UTF-8"?>
<svg width="50px" height="44px" viewBox="0 0 50 44" version="1.1" xmlns="http://www.w3.org/2000/svg" xmlns:xlink="http://www.w3.org/1999/xlink">
    <!-- Generator: Sketch 50.2 (55047) - http://www.bohemiancoding.com/sketch -->
    <title>Group 8@2x</title>
    <desc>Created with Sketch.</desc>
    <defs></defs>
    <g id="出借" stroke="none" stroke-width="1" fill="none" fill-rule="evenodd">
        <g id="W计划详情页-Copy" transform="translate(-456.000000, -1179.000000)">
            <g id="Group-7" transform="translate(32.000000, 1090.000000)">
                <g id="Group-6" transform="translate(0.000000, 72.000000)">
                    <g id="Group-3" transform="translate(410.000000, 0.000000)">
                        <g id="Group-8" transform="translate(15.000000, 19.000000)">
                            <path d="M36.9736967,16.2315237 C36.9736967,17.4741105 36.0125293,18.4797838 34.824933,18.4797838 C33.6396472,18.4797838 32.6784798,17.4741105 32.6784798,16.2315237 C32.6784798,14.9889369 33.6396472,13.9832636 34.824933,13.9832636 C36.0125293,13.9832636 36.9736967,14.9889369 36.9736967,16.2315237" id="Fill-1" fill="#FF9B21"></path>
                            <path d="M47.4092944,15.6010439 L43.6524238,15.6010439 C42.8645438,12.6372085 41.3396147,9.97555859 39.269408,7.80465796 L40.145087,1.06713004 C40.2051599,0.61264305 39.7546127,0.266942838 39.357207,0.46759401 L33.1904863,3.57406095 C30.9192662,2.60223238 28.4169963,2.05346352 25.7807175,2.05346352 C15.5706244,2.05346352 7.29210804,10.1641223 7.29210804,20.1700886 C7.29210804,27.0405782 11.1968506,33.0190161 16.9523025,36.0892208 L16.9523025,40.4092647 L23.5487759,40.4092647 L23.5487759,38.1392472 C24.2812039,38.2262767 25.0251844,38.2867138 25.7807175,38.2867138 C26.538561,38.2867138 27.280231,38.2262767 28.0103486,38.1392472 L28.0103486,40.4092647 L34.6091324,40.4092647 L34.6091324,36.0892208 C39.7546127,33.3453765 43.4098214,28.2710775 44.1283865,22.3143969 L47.4092944,22.3143969 L47.4092944,15.6010439 Z" id="Stroke-3" stroke="#5B71F9" stroke-width="3" stroke-linecap="round" stroke-linejoin="round"></path>
                            <path d="M9.03197362,12.5344654 C9.03197362,12.5344654 4.06026678,8.09455396 4.47433097,5.18172624 C4.75331038,3.23369588 6.52409551,2.30576975 8.54155717,3.31358356 C10.2447999,4.16469462 8.83521972,9.75990483 4.78854989,9.3297404 C2.02224874,9.0378431 1.16181749,6.46300172 0.78592944,5.29233995" id="Stroke-5" stroke="#566FFF" stroke-width="2.4" stroke-linecap="round" stroke-linejoin="round"></path>
                        </g>
                    </g>
                </g>
            </g>
        </g>
    </g>
</svg>