<?xml version="1.0" encoding="UTF-8"?>
<svg width="41px" height="44px" viewBox="0 0 41 44" version="1.1" xmlns="http://www.w3.org/2000/svg" xmlns:xlink="http://www.w3.org/1999/xlink">
    <!-- Generator: Sketch 50.2 (55047) - http://www.bohemiancoding.com/sketch -->
    <title>Group 11@2x</title>
    <desc>Created with Sketch.</desc>
    <defs></defs>
    <g id="出借" stroke="none" stroke-width="1" fill="none" fill-rule="evenodd">
        <g id="W计划详情页-Copy" transform="translate(-649.000000, -1180.000000)" stroke-width="3">
            <g id="Group-7" transform="translate(32.000000, 1090.000000)">
                <g id="Group-6" transform="translate(0.000000, 72.000000)">
                    <g id="Group-2" transform="translate(598.000000, 0.000000)">
                        <g id="Group-11" transform="translate(21.000000, 19.000000)">
                            <path d="M13.0672661,9.31953105 C13.0672661,9.31953105 10.0436547,5.9383863 9.50319217,2.95249609 C8.96272961,-0.0333941278 13.5119774,0.18356624 15.3269954,1.32636739 C16.5121829,2.07176588 17.1186075,3.59048846 18.6165824,3.59048846 C20.1166852,3.59048846 20.7252375,2.07176588 21.9061694,1.32636739 C23.725443,0.18356624 28.272563,-0.0333941278 27.7342283,2.95249609 C27.1937657,5.9383863 24.1701543,9.31953105 24.1701543,9.31953105" id="Stroke-1" stroke="#5B71F9"></path>
                            <path d="M18.6172207,41.455443 C49.4640146,41.455443 35.2694253,8.11013811 18.6172207,8.11013811 C1.96714403,8.11013811 -12.2295731,41.455443 18.6172207,41.455443 Z" id="Stroke-13" stroke="#5B71F9"></path>
                            <path d="M13.3775349,24.4263736 L23.8575788,24.4263736" id="Stroke-5" stroke="#FF9B21" stroke-linecap="round" stroke-linejoin="round"></path>
                            <path d="M13.3775349,29.0149575 L23.8575788,29.0149575" id="Stroke-7" stroke="#FF9B21" stroke-linecap="round" stroke-linejoin="round"></path>
                            <path d="M18.6188936,24.4263736 L18.6188936,33.6030958" id="Stroke-9" stroke="#FF9B21" stroke-linecap="round" stroke-linejoin="round"></path>
                            <path d="M23.150666,15.4408053 C23.1217033,15.5544282 18.6191164,22.6926215 18.6191164,22.6926215" id="Stroke-11" stroke="#FF9B21" stroke-linecap="round" stroke-linejoin="round"></path>
                            <path d="M14.0846705,15.4408053 C14.1158611,15.5544282 18.618448,22.6926215 18.618448,22.6926215" id="Stroke-13" stroke="#FF9B21" stroke-linecap="round" stroke-linejoin="round"></path>
                        </g>
                    </g>
                </g>
            </g>
        </g>
    </g>
</svg>